<svg t="1621772938671" class="icon" viewBox="0 0 1024 1024" version="1.1" xmlns="http://www.w3.org/2000/svg" p-id="2918" width="200" height="200"><path d="M 635.733 966.4 c -17.0667 0 -32 -14.9333 -32 -32 v -211.2 c 0 -42.6667 -34.1333 -76.8 -76.8 -76.8 s -76.8 34.1333 -76.8 76.8 v 211.2 c 0 17.0667 -14.9333 32 -32 32 s -32 -14.9333 -32 -32 v -211.2 c 0 -76.8 61.8667 -140.8 140.8 -140.8 s 140.8 61.8667 140.8 140.8 v 211.2 c 0 17.0667 -14.9333 32 -32 32 Z" fill="#ffffff" p-id="2919" data-spm-anchor-id="a313x.7781069.0.i4" class="selected"></path><path d="M 750.933 985.6 H 300.8 c -100.267 0 -181.333 -91.7333 -181.333 -204.8 V 379.733 c 0 -68.2667 29.8667 -132.267 78.9333 -168.533 l 209.067 -160 c 57.6 -44.8 136.533 -46.9333 196.267 -6.4 l 241.067 164.267 c 53.3333 36.2667 87.4667 104.533 87.4667 174.933 v 396.8 c 2.13333 113.067 -81.0667 204.8 -181.333 204.8 Z M 509.867 81.0667 c -21.3333 0 -44.8 6.4 -64 21.3333 l -209.067 160 c -34.1333 25.6 -55.4667 70.4 -55.4667 119.467 v 401.067 c 0 76.8 53.3333 140.8 117.333 140.8 h 450.133 c 64 0 117.333 -64 117.333 -140.8 V 386.133 c 0 -51.2 -23.4667 -98.1333 -59.7333 -121.6 L 567.467 98.1333 c -17.0667 -10.6667 -38.4 -17.0667 -57.6 -17.0667 Z" fill="#ffffff" p-id="2920" data-spm-anchor-id="a313x.7781069.0.i3" class="selected"></path></svg>