<svg t="1621773000145" class="icon" viewBox="0 0 1024 1024" version="1.1" xmlns="http://www.w3.org/2000/svg" p-id="4619" width="200" height="200"><path d="M627.35 949.18H236.87c-49.87 0-90.44-40.57-90.44-90.45V166.02c0-49.87 40.57-90.44 90.44-90.44h550.25c49.87 0 90.45 40.57 90.45 90.44v532.94c0 66.84-26.03 129.67-73.29 176.93s-110.09 73.29-176.93 73.29zM236.87 133.57c-17.89 0-32.44 14.55-32.44 32.44v692.71c0 17.89 14.55 32.45 32.44 32.45h390.48c105.99 0 192.22-86.23 192.22-192.22V166.02c0-17.89-14.55-32.44-32.45-32.44H236.87z" p-id="4620" fill="#ffffff"></path><path d="M700.55 391.8h-377.1c-16.02 0-29-12.98-29-29s12.98-29 29-29h377.1c16.02 0 29 12.98 29 29s-12.98 29-29 29zM591.02 690.95H324.84c-16.02 0-29-12.98-29-29s12.98-29 29-29h266.19c16.02 0 29 12.98 29 29s-12.99 29-29.01 29z" p-id="4621" fill="#ffffff"></path></svg>