<svg t="1621773385337" class="icon" viewBox="0 0 1024 1024" version="1.1" xmlns="http://www.w3.org/2000/svg" p-id="4772" width="200" height="200"><path d="M791.589047 224.121527l-567.979212 0c-30.189886 0-54.751149 24.561263-54.751149 54.751149l0 369.442335c0 30.189886 24.561263 54.751149 54.751149 54.751149l361.357585 0 140.203878 101.008195c5.423946 4.605237 12.178293 6.959025 19.034979 6.959025 3.786528 0 7.675395-0.71637 11.359584-2.251449 11.052568-4.605237 18.113932-15.248451 18.113932-27.222067L773.679792 703.06616l17.909254 0c30.189886 0 54.751149-24.561263 54.751149-54.751149l0-369.442335C846.340196 248.68279 821.778933 224.121527 791.589047 224.121527zM801.311213 648.315011c0 5.219268-4.502898 9.722167-9.722167 9.722167L728.65081 658.037178l0 45.028983 0 0 0 47.996802-129.560664-93.3328-0.409354 0.511693L598.680792 658.037178 223.609834 658.037178c-5.219268 0-9.722167-4.502898-9.722167-9.722167l0-369.442335c0-5.219268 4.502898-9.722167 9.722167-9.722167l567.979212 0c5.219268 0 9.722167 4.502898 9.722167 9.722167L801.311213 648.315011z" p-id="4773" fill="#ffffff"></path><path d="M380.69958 429.822107l-40.935439 0c-5.628623 0-10.23386 4.605237-10.23386 10.23386l0 40.935439c0 5.628623 4.605237 10.23386 10.23386 10.23386l40.935439 0c5.628623 0 10.23386-4.605237 10.23386-10.23386l0-40.935439C390.93344 434.427344 386.328203 429.822107 380.69958 429.822107z" p-id="4774" fill="#ffffff"></path><path d="M536.254247 439.03258c0-5.628623-4.605237-10.23386-10.23386-10.23386l-40.935439 0c-5.628623 0-10.23386 4.605237-10.23386 10.23386l0 40.935439c0 5.628623 4.605237 10.23386 10.23386 10.23386l40.935439 0c5.628623 0 10.23386-4.605237 10.23386-10.23386L536.254247 439.03258z" p-id="4775" fill="#ffffff"></path><path d="M683.621827 439.03258c0-5.628623-4.605237-10.23386-10.23386-10.23386l-40.935439 0c-5.628623 0-10.23386 4.605237-10.23386 10.23386l0 40.935439c0 5.628623 4.605237 10.23386 10.23386 10.23386l40.935439 0c5.628623 0 10.23386-4.605237 10.23386-10.23386L683.621827 439.03258z" p-id="4776" fill="#ffffff"></path></svg>