<?xml version="1.0" encoding="utf-8"?>
<svg version="1.1" xmlns:xlink="http://www.w3.org/1999/xlink" width="20px" height="17px" xmlns="http://www.w3.org/2000/svg">
  <g transform="matrix(1 0 0 1 -320 -33 )">
    <path d="M 2.75669642857143 14.2662760416667  C 2.82366071428571 14.3326822916667  2.85714285714286 14.4175347222222  2.85714285714286 14.5208333333333  L 2.85714285714286 16.6458333333333  C 2.85714285714286 16.7491319444444  2.82366071428571 16.833984375  2.75669642857143 16.900390625  C 2.68973214285714 16.966796875  2.60416666666667 17  2.5 17  L 0.357142857142857 17  C 0.25297619047619 17  0.167410714285714 16.966796875  0.100446428571429 16.900390625  C 0.0334821428571429 16.833984375  0 16.7491319444444  0 16.6458333333333  L 0 14.5208333333333  C 0 14.4175347222222  0.0334821428571429 14.3326822916667  0.100446428571429 14.2662760416667  C 0.167410714285714 14.1998697916667  0.25297619047619 14.1666666666667  0.357142857142857 14.1666666666667  L 2.5 14.1666666666667  C 2.60416666666667 14.1666666666667  2.68973214285714 14.1998697916667  2.75669642857143 14.2662760416667  Z M 7.04241071428571 12.849609375  C 7.109375 12.916015625  7.14285714285714 13.0008680555556  7.14285714285714 13.1041666666667  L 7.14285714285714 16.6458333333333  C 7.14285714285714 16.7491319444444  7.109375 16.833984375  7.04241071428571 16.900390625  C 6.97544642857143 16.966796875  6.88988095238095 17  6.78571428571429 17  L 4.64285714285714 17  C 4.53869047619048 17  4.453125 16.966796875  4.38616071428571 16.900390625  C 4.31919642857143 16.833984375  4.28571428571429 16.7491319444444  4.28571428571429 16.6458333333333  L 4.28571428571429 13.1041666666667  C 4.28571428571429 13.0008680555556  4.31919642857143 12.916015625  4.38616071428571 12.849609375  C 4.453125 12.783203125  4.53869047619048 12.75  4.64285714285714 12.75  L 6.78571428571429 12.75  C 6.88988095238095 12.75  6.97544642857143 12.783203125  7.04241071428571 12.849609375  Z M 11.328125 10.0162760416667  C 11.3950892857143 10.0826822916667  11.4285714285714 10.1675347222222  11.4285714285714 10.2708333333333  L 11.4285714285714 16.6458333333333  C 11.4285714285714 16.7491319444444  11.3950892857143 16.833984375  11.328125 16.900390625  C 11.2611607142857 16.966796875  11.1755952380952 17  11.0714285714286 17  L 8.92857142857143 17  C 8.82440476190476 17  8.73883928571429 16.966796875  8.671875 16.900390625  C 8.60491071428571 16.833984375  8.57142857142857 16.7491319444444  8.57142857142857 16.6458333333333  L 8.57142857142857 10.2708333333333  C 8.57142857142857 10.1675347222222  8.60491071428571 10.0826822916667  8.671875 10.0162760416667  C 8.73883928571429 9.94986979166667  8.82440476190476 9.91666666666667  8.92857142857143 9.91666666666667  L 11.0714285714286 9.91666666666667  C 11.1755952380952 9.91666666666667  11.2611607142857 9.94986979166667  11.328125 10.0162760416667  Z M 15.6138392857143 5.76627604166667  C 15.6808035714286 5.83268229166667  15.7142857142857 5.91753472222222  15.7142857142857 6.02083333333333  L 15.7142857142857 16.6458333333333  C 15.7142857142857 16.7491319444444  15.6808035714286 16.833984375  15.6138392857143 16.900390625  C 15.546875 16.966796875  15.4613095238095 17  15.3571428571429 17  L 13.2142857142857 17  C 13.110119047619 17  13.0245535714286 16.966796875  12.9575892857143 16.900390625  C 12.890625 16.833984375  12.8571428571429 16.7491319444444  12.8571428571429 16.6458333333333  L 12.8571428571429 6.02083333333333  C 12.8571428571429 5.91753472222222  12.890625 5.83268229166667  12.9575892857143 5.76627604166667  C 13.0245535714286 5.69986979166667  13.110119047619 5.66666666666667  13.2142857142857 5.66666666666667  L 15.3571428571429 5.66666666666667  C 15.4613095238095 5.66666666666667  15.546875 5.69986979166667  15.6138392857143 5.76627604166667  Z M 19.8995535714286 0.099609375  C 19.9665178571429 0.166015625  20 0.250868055555553  20 0.354166666666667  L 20 16.6458333333333  C 20 16.7491319444444  19.9665178571429 16.833984375  19.8995535714286 16.900390625  C 19.8325892857143 16.966796875  19.7470238095238 17  19.6428571428571 17  L 17.5 17  C 17.3958333333333 17  17.3102678571429 16.966796875  17.2433035714286 16.900390625  C 17.1763392857143 16.833984375  17.1428571428571 16.7491319444444  17 16.6458333333333  L 17 0.354166666666667  C 17.1428571428571 0.250868055555553  17.1763392857143 0.166015625  17.2433035714286 0.099609375  C 17.3102678571429 0.033203125  17.3958333333333 0  17.5 0  L 19.6428571428571 0  C 19.7470238095238 0  19.8325892857143 0.033203125  19.8995535714286 0.099609375  Z " fill-rule="nonzero" fill="#fdfbfb" stroke="none" transform="matrix(1 0 0 1 320 33 )" />
  </g>
</svg>