<?xml version="1.0" encoding="utf-8"?>
<svg version="1.1" xmlns:xlink="http://www.w3.org/1999/xlink" width="20px" height="14px" xmlns="http://www.w3.org/2000/svg">
  <g transform="matrix(1 0 0 1 -344 -36 )">
    <path d="M 10.9470468431772 13.2623655913978  C 10.4514596062458 13.7541218637993  10.1357773251867 14  10 14  C 9.86422267481331 14  9.54854039375424 13.7541218637993  9.05295315682281 13.2623655913978  C 8.55736591989138 12.7706093189964  8.30957230142566 12.457825567503  8.30957230142566 12.3240143369176  C 8.30957230142566 12.1099163679809  8.52172437202987 11.9292712066906  8.94602851323829 11.7820788530466  C 9.37033265444671 11.6348864994026  9.72165648336728 11.5612903225806  10 11.5612903225806  C 10.2783435166327 11.5612903225806  10.6296673455533 11.6348864994026  11.0539714867617 11.7820788530466  C 11.4782756279701 11.9292712066906  11.6904276985743 12.1099163679809  11.6904276985743 12.3240143369176  C 11.6904276985743 12.457825567503  11.4426340801086 12.7706093189964  10.9470468431772 13.2623655913978  Z M 13.7016293279022 10.5275985663082  C 13.1890699253225 11.0293906810036  12.8716904276986 11.2802867383513  12.7494908350305 11.2802867383513  C 12.7359131025119 11.2802867383513  12.6001357773252 11.1966547192354  12.3421588594705 11.0293906810036  C 12.0841819416157 10.8621266427718  11.7396469789545 10.69486260454  11.3085539714868 10.5275985663082  C 10.877460964019 10.3603345280765  10.4412763068568 10.2767025089606  10 10.2767025089606  C 9.55872369314325 10.2767025089606  9.12253903598099 10.3603345280765  8.69144602851324 10.5275985663082  C 8.26035302104549 10.69486260454  7.91751527494908 10.8621266427718  7.66293279022403 11.0293906810036  C 7.40835030549898 11.1966547192354  7.27087576374745 11.2802867383513  7.25050916496945 11.2802867383513  C 7.12830957230143 11.2802867383513  6.81093007467753 11.0293906810036  6.29837067209776 10.5275985663082  C 5.78581126951799 10.0258064516129  5.52953156822811 9.71469534050179  5.52953156822811 9.59426523297491  C 5.52953156822811 9.50728793309439  5.56347589952478 9.43034647550776  5.63136456211813 9.36344086021505  C 6.16089613034623 8.84826762246117  6.82620502376103 8.44348864994026  7.62729124236253 8.14910394265233  C 8.42837746096402 7.8547192353644  9.21928038017651 7.70752688172043  10 7.70752688172043  C 10.7807196198235 7.70752688172043  11.571622539036 7.8547192353644  12.3727087576375 8.14910394265233  C 13.173794976239 8.44348864994026  13.8391038696538 8.84826762246117  14.3686354378819 9.36344086021505  C 14.4365241004752 9.43034647550776  14.4704684317719 9.50728793309439  14.4704684317719 9.59426523297491  C 14.4704684317719 9.71469534050179  14.214188730482 10.0258064516129  13.7016293279022 10.5275985663082  Z M 16.4663951120163 7.79784946236559  C 15.9572301425662 8.29964157706093  15.6449422946368 8.5505376344086  15.5295315682281 8.5505376344086  C 15.4548540393754 8.5505376344086  15.3767820773931 8.52377538829152  15.2953156822811 8.47025089605735  C 14.3720298710115 7.76774193548387  13.5166327223354 7.25089605734767  12.7291242362525 6.91971326164875  C 11.9416157501697 6.58853046594982  11.0319076714189 6.42293906810036  10 6.42293906810036  C 9.42294636795655 6.42293906810036  8.84419551934827 6.49653524492234  8.26374745417515 6.64372759856631  C 7.68329938900204 6.79091995221027  7.1775288526816 6.96821983273596  6.74643584521385 7.17562724014337  C 6.3153428377461 7.38303464755078  5.93007467752885 7.59044205495818  5.59063136456212 7.79784946236559  C 5.25118805159538 8.005256869773  4.98302783435166 8.18255675029868  4.78615071283096 8.32974910394265  C 4.58927359131025 8.47694145758662  4.48404616429056 8.5505376344086  4.47046843177189 8.5505376344086  C 4.3550577053632 8.5505376344086  4.04276985743381 8.29964157706093  3.53360488798371 7.79784946236559  C 3.02443991853361 7.29605734767025  2.76985743380855 6.98494623655914  2.76985743380855 6.86451612903226  C 2.76985743380855 6.784229390681  2.80380176510523 6.71063321385902  2.87169042769857 6.64372759856631  C 3.76782077393075 5.76057347670251  4.85403937542431 5.07479091995221  6.13034623217923 4.58637992831541  C 7.40665308893415 4.09796893667861  8.69653767820774 3.85376344086021  10 3.85376344086021  C 11.3034623217923 3.85376344086021  12.5933469110659 4.09796893667861  13.8696537678208 4.58637992831541  C 15.1459606245757 5.07479091995221  16.2321792260692 5.76057347670251  17.1283095723014 6.64372759856631  C 17.1961982348948 6.71063321385902  17.2301425661915 6.784229390681  17.2301425661914 6.86451612903226  C 17.2301425661915 6.98494623655914  16.9755600814664 7.29605734767025  16.4663951120163 7.79784946236559  Z M 19.2311608961303 5.07813620071685  C 18.7186014935506 5.57992831541219  18.4046164290563 5.83082437275986  18.2892057026477 5.83082437275986  C 18.214528173795 5.83082437275986  18.1398506449423 5.80071684587814  18.0651731160896 5.74050179211469  C 16.8499660556687 4.69008363201912  15.5889341479973 3.8989247311828  14.2820773930754 3.36702508960574  C 12.9752206381534 2.83512544802867  11.5478615071283 2.56917562724014  10 2.56917562724014  C 8.45213849287169 2.56917562724014  7.02477936184657 2.83512544802867  5.71792260692464 3.36702508960574  C 4.41106585200272 3.8989247311828  3.1500339443313 4.69008363201912  1.93482688391039 5.74050179211469  C 1.86014935505771 5.80071684587814  1.78547182620502 5.83082437275986  1.71079429735234 5.83082437275986  C 1.59538357094365 5.83082437275986  1.28139850644942 5.57992831541219  0.768839103869654 5.07813620071685  C 0.256279701289885 4.57634408602151  0 4.26523297491039  0 4.14480286738351  C 0 4.05782556750299  0.0339443312966735 3.98088410991637  0.10183299389002 3.91397849462366  C 1.37135098438561 2.66953405017921  2.88187372708758 1.70609318996416  4.63340122199593 1.02365591397849  C 6.38492871690428 0.341218637992831  8.17379497623897 0  10 0  C 11.826205023761 0  13.6150712830957 0.341218637992831  15.3665987780041 1.02365591397849  C 17.1181262729124 1.70609318996416  18.6286490156144 2.66953405017921  19.89816700611 3.91397849462366  C 19.9660556687033 3.98088410991637  20 4.05782556750299  20 4.14480286738351  C 20 4.26523297491039  19.7437202987101 4.57634408602151  19.2311608961303 5.07813620071685  Z " fill-rule="nonzero" fill="#fdfbfb" stroke="none" transform="matrix(1 0 0 1 344 36 )" />
  </g>
</svg>