<?xml version="1.0" encoding="utf-8"?>
<svg version="1.1" xmlns:xlink="http://www.w3.org/1999/xlink" width="20px" height="11px" xmlns="http://www.w3.org/2000/svg">
  <g transform="matrix(1 0 0 1 -370 -39 )">
    <path d="M 10 8.8  L 2.22222222222222 8.8  L 2.22222222222222 2.2  L 10 2.2  L 10 8.8  Z M 18.8888888888889 1.375  L 18.8888888888889 2.75  C 19.1956018518519 2.75  19.4574652777778 2.857421875  19.6744791666667 3.072265625  C 19.8914930555556 3.287109375  20 3.54635416666667  20 3.85  L 20 7.15  C 20 7.45364583333333  19.8914930555556 7.712890625  19.6744791666667 7.927734375  C 19.4574652777778 8.142578125  19.1956018518519 8.25  18.8888888888889 8.25  L 18.8888888888889 9.625  C 18.8888888888889 10.003125  18.7528935185185 10.3268229166667  18.4809027777778 10.59609375  C 18.208912037037 10.8653645833333  17.8819444444444 11  17.5 11  L 1.38888888888889 11  C 1.00694444444444 11  0.679976851851852 10.8653645833333  0.407986111111111 10.59609375  C 0.13599537037037 10.3268229166667  0 10.003125  0 9.625  L 0 1.375  C 0 0.996875  0.13599537037037 0.673177083333333  0.407986111111111 0.40390625  C 0.679976851851852 0.134635416666665  1.00694444444444 0  1.38888888888889 0  L 17.5 0  C 17.8819444444444 0  18.208912037037 0.134635416666665  18.4809027777778 0.40390625  C 18.7528935185185 0.673177083333333  18.8888888888889 0.996875  18.8888888888889 1.375  Z M 17.7777777777778 7.15  L 18.8888888888889 7.15  L 18.8888888888889 3.85  L 17.7777777777778 3.85  L 17.7777777777778 1.375  C 17.7777777777778 1.29479166666667  17.7517361111111 1.22890625  17.6996527777778 1.17734375  C 17.6475694444444 1.12578125  17.5810185185185 1.1  17.5 1  L 1.38888888888889 1  C 1.30787037037037 1.1  1.24131944444444 1.12578125  1.18923611111111 1.17734375  C 1.13715277777778 1.22890625  1.11111111111111 1.29479166666667  1.11111111111111 1.375  L 1.11111111111111 9.625  C 1.11111111111111 9.70520833333333  1.13715277777778 9.77109375  1.18923611111111 9.82265625  C 1.24131944444444 9.87421875  1.30787037037037 9.9  1.38888888888889 10  L 17.5 10  C 17.5810185185185 9.9  17.6475694444444 9.87421875  17.6996527777778 9.82265625  C 17.7517361111111 9.77109375  17.7777777777778 9.70520833333333  17.7777777777778 9.625  L 17.7777777777778 7.15  Z " fill-rule="nonzero" fill="#fdfbfb" stroke="none" transform="matrix(1 0 0 1 370 39 )" />
  </g>
</svg>