<svg t="1610137652961" class="icon" viewBox="0 0 1024 1024" version="1.1" xmlns="http://www.w3.org/2000/svg" p-id="4240" width="200" height="200"><path d="M538.176 822.832v53.168h26.176a26 26 0 1 1 0 52h-104.72a26 26 0 1 1 0-52h26.176v-53.168A292.8 292.8 0 0 1 224 590h52.368a243.536 243.536 0 0 0 471.28 0H800a292.8 292.8 0 0 1-261.824 232.832zM512 720a182.64 182.64 0 0 1-183.264-182v-260a183.28 183.28 0 0 1 366.544 0v260A182.64 182.64 0 0 1 512 720z m130.912-442a130.912 130.912 0 0 0-261.824 0v260a130.912 130.912 0 0 0 261.824 0v-260z" p-id="4241" fill="#515151"></path></svg>