<svg t="1610137751024" class="icon" viewBox="0 0 1024 1024" version="1.1" xmlns="http://www.w3.org/2000/svg" p-id="5157" width="200" height="200"><path d="M512 64C264.576 64 64 264.576 64 512s200.576 448 448 448 448-200.576 448-448S759.424 64 512 64z m0 832C299.936 896 128 724.064 128 512S299.936 128 512 128s384 171.936 384 384-171.936 384-384 384z" p-id="5158" fill="#515151"></path><path d="M320 384m-64 0a64 64 0 1 0 128 0 64 64 0 1 0-128 0Z" p-id="5159" fill="#515151"></path><path d="M704 384m-64 0a64 64 0 1 0 128 0 64 64 0 1 0-128 0Z" p-id="5160" fill="#515151"></path><path d="M224 512c0 159.072 128.928 288 288 288s288-128.928 288-288H224z" p-id="5161" fill="#515151"></path></svg>